{
  "asset": {
    "version": "2.0",
    "generator": "elecdex scripts/elecfighter/build-models.mjs"
  },
  "scene": 0,
  "scenes": [
    {
      "name": "human",
      "nodes": [
        0,
        19
      ]
    }
  ],
  "nodes": [
    {
      "name": "hips",
      "translation": [
        0,
        0.94,
        0
      ],
      "children": [
        1,
        13,
        16
      ]
    },
    {
      "name": "spine",
      "translation": [
        0,
        0.12,
        -0.005
      ],
      "children": [
        2
      ]
    },
    {
      "name": "chest",
      "translation": [
        0,
        0.16,
        -0.005
      ],
      "children": [
        3,
        5,
        9
      ]
    },
    {
      "name": "neck",
      "translation": [
        0,
        0.23,
        -0.01
      ],
      "children": [
        4
      ]
    },
    {
      "name": "head",
      "translation": [
        0,
        0.08,
        0.015
      ]
    },
    {
      "name": "clavicle_l",
      "translation": [
        0.03,
        0.2,
        0.005
      ],
      "children": [
        6
      ]
    },
    {
      "name": "upperarm_l",
      "translation": [
        0.162,
        -0.005,
        -0.02
      ],
      "children": [
        7
      ]
    },
    {
      "name": "forearm_l",
      "translation": [
        0,
        -0.305,
        -0.005
      ],
      "children": [
        8
      ]
    },
    {
      "name": "hand_l",
      "translation": [
        0,
        -0.25,
        0.01
      ]
    },
    {
      "name": "clavicle_r",
      "translation": [
        -0.03,
        0.2,
        0.005
      ],
      "children": [
        10
      ]
    },
    {
      "name": "upperarm_r",
      "translation": [
        -0.162,
        -0.005,
        -0.02
      ],
      "children": [
        11
      ]
    },
    {
      "name": "forearm_r",
      "translation": [
        0,
        -0.305,
        -0.005
      ],
      "children": [
        12
      ]
    },
    {
      "name": "hand_r",
      "translation": [
        0,
        -0.25,
        0.01
      ]
    },
    {
      "name": "thigh_l",
      "translation": [
        0.092,
        -0.04,
        0
      ],
      "children": [
        14
      ]
    },
    {
      "name": "shin_l",
      "translation": [
        0,
        -0.41,
        0.005
      ],
      "children": [
        15
      ]
    },
    {
      "name": "foot_l",
      "translation": [
        0,
        -0.405,
        -0.015
      ]
    },
    {
      "name": "thigh_r",
      "translation": [
        -0.092,
        -0.04,
        0
      ],
      "children": [
        17
      ]
    },
    {
      "name": "shin_r",
      "translation": [
        0,
        -0.41,
        0.005
      ],
      "children": [
        18
      ]
    },
    {
      "name": "foot_r",
      "translation": [
        0,
        -0.405,
        -0.015
      ]
    },
    {
      "name": "human",
      "mesh": 0,
      "skin": 0
    }
  ],
  "meshes": [
    {
      "name": "human",
      "primitives": [
        {
          "attributes": {
            "POSITION": 0,
            "JOINTS_0": 1,
            "WEIGHTS_0": 2
          },
          "indices": 3,
          "material": 0
        },
        {
          "attributes": {
            "POSITION": 0,
            "JOINTS_0": 1,
            "WEIGHTS_0": 2
          },
          "indices": 4,
          "material": 1
        },
        {
          "attributes": {
            "POSITION": 0,
            "JOINTS_0": 1,
            "WEIGHTS_0": 2
          },
          "indices": 5,
          "material": 2
        }
      ]
    }
  ],
  "materials": [
    {
      "name": "suit",
      "pbrMetallicRoughness": {
        "baseColorFactor": [
          0.42,
          0.5,
          0.66,
          1
        ]
      },
      "extras": {
        "fill": "A"
      }
    },
    {
      "name": "gear",
      "pbrMetallicRoughness": {
        "baseColorFactor": [
          0.22,
          0.25,
          0.3,
          1
        ]
      },
      "extras": {
        "fill": "B"
      }
    },
    {
      "name": "head",
      "pbrMetallicRoughness": {
        "baseColorFactor": [
          0.66,
          0.68,
          0.74,
          1
        ]
      },
      "extras": {
        "fill": "C"
      }
    }
  ],
  "bufferViews": [
    {
      "buffer": 0,
      "byteOffset": 0,
      "byteLength": 5496,
      "target": 34962
    },
    {
      "buffer": 0,
      "byteOffset": 5496,
      "byteLength": 1832,
      "target": 34962
    },
    {
      "buffer": 0,
      "byteOffset": 7328,
      "byteLength": 7328,
      "target": 34962
    },
    {
      "buffer": 0,
      "byteOffset": 14656,
      "byteLength": 2940,
      "target": 34963
    },
    {
      "buffer": 0,
      "byteOffset": 17596,
      "byteLength": 1776,
      "target": 34963
    },
    {
      "buffer": 0,
      "byteOffset": 19372,
      "byteLength": 444,
      "target": 34963
    },
    {
      "buffer": 0,
      "byteOffset": 19816,
      "byteLength": 1216
    }
  ],
  "accessors": [
    {
      "bufferView": 0,
      "componentType": 5126,
      "count": 458,
      "type": "VEC3",
      "min": [
        -0.2571282982826233,
        0,
        -0.09700734913349152
      ],
      "max": [
        0.2571282982826233,
        1.7519999742507935,
        0.20000000298023224
      ]
    },
    {
      "bufferView": 1,
      "componentType": 5121,
      "count": 458,
      "type": "VEC4"
    },
    {
      "bufferView": 2,
      "componentType": 5126,
      "count": 458,
      "type": "VEC4"
    },
    {
      "bufferView": 3,
      "componentType": 5123,
      "count": 1470,
      "type": "SCALAR"
    },
    {
      "bufferView": 4,
      "componentType": 5123,
      "count": 888,
      "type": "SCALAR"
    },
    {
      "bufferView": 5,
      "componentType": 5123,
      "count": 222,
      "type": "SCALAR"
    },
    {
      "bufferView": 6,
      "componentType": 5126,
      "count": 19,
      "type": "MAT4"
    }
  ],
  "skins": [
    {
      "name": "human-skeleton",
      "joints": [
        0,
        1,
        2,
        3,
        4,
        5,
        6,
        7,
        8,
        9,
        10,
        11,
        12,
        13,
        14,
        15,
        16,
        17,
        18
      ],
      "skeleton": 0,
      "inverseBindMatrices": 6
    }
  ],
  "buffers": [
    {
      "byteLength": 21032,
      "uri": "data:application/octet-stream;base64,"
    }
  ]
}
